<?xml version="1.0" encoding="utf-8"?>
<!-- Generator: Adobe Illustrator 16.0.0, SVG Export Plug-In . SVG Version: 6.00 Build 0)  -->
<!DOCTYPE svg PUBLIC "-//W3C//DTD SVG 1.0//EN" "http://www.w3.org/TR/2001/REC-SVG-20010904/DTD/svg10.dtd">
<svg version="1.0" xmlns="http://www.w3.org/2000/svg" xmlns:xlink="http://www.w3.org/1999/xlink" x="0px" y="0px" width="1600px"
	 height="1600px" viewBox="0 0 1600 1600" enable-background="new 0 0 1600 1600" xml:space="preserve">
<pattern  width="490.25" height="490.25" patternUnits="userSpaceOnUse" id="suciedad_invertida" viewBox="493.125 -985.599 490.25 490.25" overflow="visible">
	<g>
		<polygon fill="none" points="493.125,-985.6 983.375,-985.6 983.375,-495.35 493.125,-495.35 		"/>
		<g>
			<polygon points="1476.5,0 980.5,0 980.5,-499.5 1476.5,-499.5 			"/>
		</g>
		<g>
			<polygon points="986.25,0 490.25,0 490.25,-499.5 986.25,-499.5 			"/>
		</g>
		<g>
			<polygon points="496,0 0,0 0,-499.5 496,-499.5 			"/>
		</g>
		<g>
			<polygon points="1476.5,-490.25 980.5,-490.25 980.5,-989.75 1476.5,-989.75 			"/>
		</g>
		<g>
			<polygon points="986.25,-490.25 490.25,-490.25 490.25,-989.75 986.25,-989.75 			"/>
			<path fill="#FFFFFF" d="M673.782-985.6c0.304,0.519,0.681,1.01,0.886,1.564c0.152,0.41,0.223,1.246,0.085,1.303
				c-0.673,0.279-1.429,0.475-2.151,0.46c-0.311-0.007-0.827-0.566-0.871-0.922c-0.098-0.786,0.046-1.602,0.091-2.405
				C672.475-985.6,673.129-985.6,673.782-985.6z"/>
			<path fill="#FFFFFF" d="M983.375-598.057c-0.335-0.131-0.813-0.167-0.974-0.412c-0.318-0.485-0.461-1.085-0.677-1.638
				c0.55-0.134,1.101-0.268,1.65-0.401C983.375-599.691,983.375-598.874,983.375-598.057z"/>
			<path fill="#FFFFFF" d="M493.125-600.753c0.848-0.12,1.333,0.227,1.283,1.103c-0.043,0.766-0.345,1.33-1.283,1.104
				C493.125-599.282,493.125-600.018,493.125-600.753z"/>
			<path fill="#FFFFFF" d="M615.931-658.727c0.861,0.5,1.727,0.993,2.577,1.511c0.118,0.072,0.214,0.268,0.224,0.413
				c0.068,0.964,0.178,1.932,0.141,2.894c-0.038,0.976-1.816,2.096-2.861,1.89c-1.742-0.342-2.334-1.189-2.083-2.917
				c0.036-0.25-0.088-0.527-0.154-0.788c-0.144-0.568-0.597-1.338-0.381-1.655c0.347-0.51,1.125-0.736,1.742-1.042
				c0.163-0.081,0.4-0.013,0.603-0.013C615.802-658.532,615.867-658.629,615.931-658.727z"/>
			<path fill="#FFFFFF" d="M660.474-758.283c-0.956-0.623-1.721-1.074-2.429-1.602c-0.348-0.258-0.54-0.73-0.893-0.979
				c-0.873-0.615-0.873-1.548-0.346-2.115c0.387-0.416,1.371-0.461,2.048-0.367c0.626,0.088,1.36,0.443,1.754,0.922
				c0.669,0.811,1.22,1.773,1.553,2.764C662.234-759.443,661.188-758.85,660.474-758.283z"/>
			<path fill="#FFFFFF" d="M903.638-517.962c1.121-0.018,2.188,0.021,2.251,1.564c0.007,0.172,0.281,0.372,0.474,0.492
				c0.997,0.623,1.104,1.115,0.436,2.148c-0.414,0.639-1.569,0.878-2.161,0.328c-0.915-0.851-1.772-1.773-2.577-2.729
				c-0.271-0.323-0.544-0.974-0.396-1.239c0.179-0.319,0.797-0.416,1.242-0.553C903.131-518.019,903.393-517.962,903.638-517.962z"
				/>
			<path fill="#FFFFFF" d="M520.795-582.511c0.292-0.686,0.409-1.738,0.914-1.979c1.074-0.514,1.621,0.482,2.099,1.323
				c0.135,0.239,0.392,0.407,0.583,0.616c0.494,0.542,0.549,1.065-0.07,1.563c-0.185,0.148-0.414,0.284-0.52,0.481
				c-0.264,0.488-0.196,1.402-1.123,1.037c-0.848-0.334-1.797-0.705-1.631-1.955c0.042-0.319,0.006-0.649,0.006-0.976
				C520.967-582.438,520.881-582.475,520.795-582.511z"/>
			<path fill="#FFFFFF" d="M597.699-687.938c1.414-0.172,2.057,0.931,2.737,1.685c0.734,0.816,0.03,2.153-1.077,2.211
				c-1.149,0.06-2.501,0.36-2.563-1.495c-0.002-0.075-0.042-0.171-0.098-0.219c-0.496-0.437-1.15-0.938-0.598-1.599
				C596.415-687.731,597.152-687.755,597.699-687.938z"/>
			<path fill="#FFFFFF" d="M917.092-739.564c1.028-0.854,2.244-0.602,2.81,0.684c0.504,1.146-0.786,1.342-1.208,1.991
				c-0.112,0.174-0.918,0.158-1.143-0.052c-0.697-0.651-1.293-1.421-1.867-2.189c-0.113-0.15,0.042-0.501,0.074-0.76
				C916.155-739.793,916.553-739.696,917.092-739.564z"/>
			<path fill="#FFFFFF" d="M769.235-826.475c-0.345,0.37-0.82,1.166-1.521,1.549c-0.677,0.369-0.959-0.373-0.998-0.968
				c-0.051-0.759,0.079-1.534-0.807-1.979c-0.155-0.078-0.224-0.662-0.099-0.875c0.15-0.259,0.535-0.486,0.845-0.525
				C767.62-829.393,769.2-827.912,769.235-826.475z"/>
			<path fill="#FFFFFF" d="M533.906-936.076c1.05,0.757,1.999,1.38,2.854,2.112c0.152,0.13-0.025,1.015-0.158,1.043
				c-0.597,0.128-1.258,0.185-1.848,0.052c-0.624-0.141-1.242-0.456-1.766-0.831c-0.33-0.235-0.759-0.923-0.662-1.057
				C532.665-935.221,533.213-935.53,533.906-936.076z"/>
			<path fill="#FFFFFF" d="M573.383-925.571c0.479,0.422,1.311,0.804,1.363,1.273c0.111,0.993-0.943,1.761-1.913,1.732
				c-1.048-0.03-1.298-0.671-1.266-1.55C571.607-925.16,572.288-925.373,573.383-925.571z"/>
			<path fill="#FFFFFF" d="M704.775-875.947c0.994-0.689,2.104-1.123,3.329-0.756c0.306,0.092,0.573,0.813,0.57,1.244
				c-0.001,0.254-0.613,0.76-0.871,0.713c-1.019-0.184-2.007-0.542-3.006-0.836C704.79-875.703,704.783-875.825,704.775-875.947z"/>
			<path fill="#FFFFFF" d="M755.779-733.663c0.579,0.546,1.329,1.16,1.284,1.224c-0.456,0.658-1.041,1.227-1.59,1.819
				c-0.485-0.58-0.971-1.16-1.456-1.74C754.534-732.742,755.052-733.125,755.779-733.663z"/>
			<path fill="#FFFFFF" d="M608.905-604.313c0.603,0.625,1.187,0.958,1.296,1.406c0.177,0.731-0.751,1.758-1.382,1.722
				c-1.031-0.06-1.316-0.895-1.239-1.642C607.627-603.278,608.296-603.664,608.905-604.313z"/>
			<path fill="#FFFFFF" d="M499.429-981.247c0.179-0.39,0.313-1.103,0.744-1.464c0.248-0.209,1.069,0.015,1.461,0.289
				c0.569,0.396,1.306,0.941,0.808,1.789c-0.145,0.245-0.839,0.326-1.223,0.234C500.655-980.534,500.145-980.893,499.429-981.247z"
				/>
			<path fill="#FFFFFF" d="M746.368-737.314c0.325,0,0.713-0.111,0.962,0.027c0.335,0.187,0.778,0.567,0.775,0.862
				c-0.002,0.296-0.448,0.752-0.781,0.844c-0.531,0.146-1.159,0.16-1.691,0.022c-0.417-0.109-0.994-0.477-1.076-0.827
				c-0.169-0.727,0.434-0.945,1.078-0.95c0.244-0.001,0.489,0,0.733,0C746.368-737.329,746.368-737.322,746.368-737.314z"/>
			<path fill="#FFFFFF" d="M739.489-843.935c-0.35,0.389-0.638,1.006-1.061,1.117c-0.825,0.218-1.079-0.485-1.173-1.175
				c-0.038-0.277-0.121-0.617-0.005-0.832c0.263-0.486,0.636-0.912,0.965-1.363c0.315,0.438,0.659,0.859,0.933,1.321
				c0.112,0.191,0.074,0.472,0.104,0.713C739.331-844.08,739.41-844.008,739.489-843.935z"/>
			<path fill="#FFFFFF" d="M542.526-926.592c0.036,0.713-2.193,2.207-2.75,1.919c-0.201-0.104-0.511-0.432-0.486-0.469
				c0.475-0.718,0.903-1.513,1.544-2.05c0.26-0.217,1.009,0.127,1.523,0.262C542.456-926.904,542.496-926.658,542.526-926.592z"/>
			<path fill="#FFFFFF" d="M542.982-921.799c-0.144,1.076-0.214,1.818-0.365,2.546c-0.031,0.148-0.381,0.346-0.551,0.317
				c-0.162-0.026-0.32-0.299-0.411-0.496c-0.212-0.463-0.423-0.933-0.56-1.42c-0.134-0.477-0.314-1.017-0.198-1.455
				c0.058-0.218,0.816-0.471,1.115-0.352C542.463-922.478,542.788-921.984,542.982-921.799z"/>
			<path fill="#FFFFFF" d="M657.213-755.648c-0.166,0.142-0.744,0.74-0.824,0.68c-0.667-0.505-1.242-1.131-1.846-1.72
				c0.405-0.291,0.791-0.79,1.219-0.829C656.75-757.608,657.242-757.002,657.213-755.648z"/>
			<path fill="#FFFFFF" d="M629.17-891.2c-1.228-0.041-1.991-0.792-1.88-1.681c0.042-0.336,0.457-0.625,0.702-0.936
				c0.643,0.585,1.303,1.154,1.886,1.793C629.913-891.984,629.327-891.379,629.17-891.2z"/>
			<path fill="#FFFFFF" d="M778.456-690.993c0.747,0.662,1.444,1.218,2.041,1.865c0.107,0.117-0.114,0.795-0.327,0.889
				c-0.292,0.129-0.766,0.035-1.08-0.124c-0.401-0.204-0.746-0.544-1.068-0.872c-0.23-0.235-0.585-0.609-0.523-0.81
				C777.594-690.354,777.998-690.567,778.456-690.993z"/>
			<path fill="#FFFFFF" d="M511.881-978.525c-0.089,2.184-0.916,2.897-2.259,2.279c-0.645-0.297-0.947-0.881-0.313-1.297
				C510.025-978.014,510.939-978.184,511.881-978.525z"/>
			<path fill="#FFFFFF" d="M901.667-509.868c-1.066-0.226-1.646-0.606-1.508-1.46c0.071-0.438,0.563-0.808,0.865-1.209
				c0.576,0.508,1.152,1.015,1.729,1.522C902.391-510.633,902.028-510.251,901.667-509.868z"/>
			<path fill="#FFFFFF" d="M890.197-705.979c0.172,0.177,0.645,0.459,0.787,0.859c0.192,0.538-1.045,1.581-1.887,1.565
				c-0.271-0.006-0.722-0.385-0.768-0.649C888.206-704.914,889.177-705.938,890.197-705.979z"/>
			<path fill="#FFFFFF" d="M608.956-722.127c0.473,0.56,1.009,1.079,1.389,1.695c0.176,0.285,0.144,0.799,0.009,1.129
				c-0.057,0.142-0.757,0.231-0.919,0.08c-0.459-0.425-0.899-0.942-1.132-1.512c-0.146-0.356,0.093-0.871,0.159-1.315
				C608.625-722.075,608.791-722.102,608.956-722.127z"/>
			<path fill="#FFFFFF" d="M952.394-629c-0.728-0.6-1.238-1.021-1.749-1.442c0.36-0.315,0.722-0.891,1.082-0.891
				c0.654,0.001,1.62-0.018,1.622,1.009C953.349-629.964,952.849-629.604,952.394-629z"/>
			<path fill="#FFFFFF" d="M610.443-781.289c0.567,0.629,1.166,0.988,1.207,1.403c0.089,0.881-0.683,0.93-1.358,0.928
				c-0.676-0.002-1.333-0.213-1.167-0.988C609.217-780.371,609.823-780.686,610.443-781.289z"/>
			<path fill="#FFFFFF" d="M696.971-872.885c0.709,0.83,1.205,1.35,1.582,1.945c0.039,0.063-0.863,0.88-0.934,0.826
				c-0.526-0.398-1.018-0.888-1.369-1.445C696.154-871.711,696.578-872.189,696.971-872.885z"/>
			<path fill="#FFFFFF" d="M878.254-826.998c-0.707,0.618-1.104,0.965-1.501,1.312c-0.313-0.435-0.845-0.857-0.871-1.31
				c-0.023-0.381,0.542-0.797,0.847-1.197C877.134-827.875,877.539-827.558,878.254-826.998z"/>
			<path fill="#FFFFFF" d="M876.93-796.799c-0.46-0.57-0.746-0.926-1.032-1.281c0.385-0.309,0.782-0.875,1.152-0.857
				c0.408,0.019,0.792,0.573,1.186,0.895C877.868-797.691,877.5-797.342,876.93-796.799z"/>
			<path fill="#FFFFFF" d="M874.984-646.978c-0.579,0.538-0.938,0.871-1.298,1.205c-0.287-0.411-0.8-0.822-0.799-1.232
				c0.001-0.4,0.526-0.801,0.821-1.2C874.063-647.865,874.415-647.525,874.984-646.978z"/>
			<path fill="#FFFFFF" d="M780.925-804.729c-0.549,0.543-0.878,0.868-1.207,1.193c-0.289-0.406-0.778-0.799-0.807-1.224
				c-0.024-0.354,0.489-0.745,0.765-1.12C780.031-805.552,780.387-805.225,780.925-804.729z"/>
			<path fill="#FFFFFF" d="M855.767-847.365c-0.573,0.494-0.929,0.801-1.285,1.108c-0.289-0.46-0.697-0.895-0.809-1.396
				c-0.045-0.198,0.621-0.811,0.869-0.761C854.928-848.336,855.232-847.854,855.767-847.365z"/>
			<path fill="#FFFFFF" d="M566.658-595.097c-0.55,0.45-0.946,1.006-1.239,0.955c-0.355-0.062-0.901-0.669-0.861-0.974
				c0.056-0.431,0.574-0.801,0.895-1.196C565.786-595.977,566.119-595.641,566.658-595.097z"/>
			<path fill="#FFFFFF" d="M854.463-964.577c-0.579-0.58-0.933-0.935-1.286-1.289c0.36-0.304,0.747-0.872,1.076-0.841
				c0.398,0.038,0.848,0.531,1.067,0.939C855.401-965.617,854.89-965.148,854.463-964.577z"/>
			<path fill="#FFFFFF" d="M616.387-685.724c-0.48-0.516-0.794-0.853-1.108-1.188c0.383-0.273,0.769-0.764,1.147-0.759
				c0.383,0.005,0.759,0.502,1.138,0.783C617.233-686.561,616.902-686.232,616.387-685.724z"/>
			<path fill="#FFFFFF" d="M715.746-910.046c-0.482-0.564-0.785-0.92-1.088-1.275c0.413-0.288,0.813-0.768,1.244-0.799
				c0.3-0.021,0.9,0.577,0.897,0.895C716.797-910.891,716.237-910.561,715.746-910.046z"/>
			<path fill="#FFFFFF" d="M670.681-887.837c-0.41-0.565-0.661-0.911-0.911-1.257c0.418-0.277,0.836-0.766,1.256-0.769
				c0.348-0.002,0.699,0.567,1.049,0.884C671.68-888.655,671.284-888.332,670.681-887.837z"/>
			<path fill="#FFFFFF" d="M604.948-619.888c-0.458-0.624-0.928-0.988-0.924-1.348c0.003-0.287,0.611-0.82,0.902-0.789
				c0.401,0.043,0.756,0.515,1.13,0.803C605.761-620.866,605.465-620.51,604.948-619.888z"/>
			<path fill="#FFFFFF" d="M719.475-819.209c-0.482,0.58-0.965,1.161-1.447,1.741c-0.274-0.235-0.775-0.46-0.787-0.708
				c-0.063-1.346,1.213-0.925,1.836-1.391C719.209-819.447,719.342-819.328,719.475-819.209z"/>
			<path fill="#FFFFFF" d="M830.398-977.843c-0.403-0.546-0.908-0.95-0.842-1.208c0.086-0.331,0.654-0.783,0.968-0.75
				c0.401,0.043,0.757,0.52,1.132,0.809C831.307-978.674,830.958-978.354,830.398-977.843z"/>
			<path fill="#FFFFFF" d="M861.86-735.376c-0.605,0.514-0.938,1.008-1.31,1.04c-0.267,0.023-0.843-0.594-0.817-0.887
				c0.031-0.374,0.472-0.871,0.846-1C860.813-736.303,861.246-735.804,861.86-735.376z"/>
			<path fill="#FFFFFF" d="M717.158-968.6c-0.508,0.512-0.832,0.839-1.157,1.166c-0.262-0.348-0.744-0.706-0.728-1.04
				c0.02-0.386,0.479-0.75,0.746-1.124C716.336-969.319,716.653-969.041,717.158-968.6z"/>
			<path fill="#FFFFFF" d="M723.315-530.541c0.225,0.407,0.634,0.822,0.617,1.219c-0.015,0.33-0.53,0.638-0.825,0.956
				c-0.297-0.308-0.813-0.599-0.837-0.927c-0.03-0.397,0.354-0.825,0.56-1.24C722.992-530.536,723.153-530.538,723.315-530.541z"/>
			<path fill="#FFFFFF" d="M975.101-790.258c-0.596,0.513-0.916,0.992-1.297,1.047c-0.262,0.037-0.607-0.518-0.915-0.808
				c0.354-0.304,0.671-0.697,1.08-0.87C974.15-790.966,974.521-790.598,975.101-790.258z"/>
			<path fill="#FFFFFF" d="M703.188-604.997c-0.672,0.4-1.082,0.837-1.376,0.769c-0.33-0.075-0.783-0.626-0.76-0.937
				c0.025-0.321,0.547-0.819,0.875-0.838C702.236-606.021,702.574-605.516,703.188-604.997z"/>
			<path fill="#FFFFFF" d="M748.16-901.197c-0.222-0.352-0.646-0.726-0.611-1.049c0.039-0.348,0.51-0.648,0.791-0.971
				c0.301,0.308,0.792,0.585,0.847,0.932c0.051,0.32-0.364,0.716-0.573,1.078C748.462-901.203,748.312-901.2,748.16-901.197z"/>
			<path fill="#FFFFFF" d="M718.949-741.16c-0.447-0.666-0.908-1.057-0.854-1.352c0.062-0.336,0.584-0.811,0.906-0.811
				c0.301-0.002,0.802,0.518,0.843,0.854C719.883-742.167,719.416-741.803,718.949-741.16z"/>
			<path fill="#FFFFFF" d="M733.105-932.205c-0.378-0.691-0.758-1.076-0.721-1.415c0.031-0.291,0.539-0.53,0.836-0.792
				c0.281,0.318,0.729,0.611,0.789,0.967C734.053-933.182,733.589-932.834,733.105-932.205z"/>
			<path fill="#FFFFFF" d="M961.655-721.587c0.421,0.663,0.828,1.023,0.811,1.363c-0.014,0.291-0.583,0.829-0.781,0.777
				c-0.354-0.094-0.776-0.51-0.858-0.863C960.767-720.565,961.211-720.938,961.655-721.587z"/>
			<path fill="#FFFFFF" d="M686.947-744.428c-0.634,0.368-1.001,0.755-1.295,0.706c-0.316-0.053-0.564-0.515-0.843-0.798
				c0.318-0.281,0.608-0.726,0.965-0.788C686.029-745.353,686.373-744.883,686.947-744.428z"/>
			<path fill="#FFFFFF" d="M915.459-720.118c-0.702,0.351-1.099,0.715-1.438,0.667c-0.286-0.04-0.768-0.655-0.697-0.844
				c0.127-0.343,0.578-0.726,0.934-0.77C914.523-721.097,914.852-720.622,915.459-720.118z"/>
			<path fill="#FFFFFF" d="M690.75-856.525c-0.351,0.223-0.707,0.623-1.049,0.611c-0.285-0.009-0.77-0.498-0.773-0.78
				c-0.004-0.3,0.434-0.821,0.718-0.851c0.341-0.034,0.726,0.35,1.091,0.553C690.74-856.836,690.745-856.682,690.75-856.525z"/>
			<path fill="#FFFFFF" d="M639.455-650.463c-0.604,0.397-0.982,0.833-1.238,0.77c-0.355-0.087-0.618-0.549-0.92-0.85
				c0.325-0.276,0.623-0.715,0.983-0.774C638.541-651.36,638.884-650.9,639.455-650.463z"/>
			<path fill="#FFFFFF" d="M602.823-682.673c-0.35,0.23-0.703,0.643-1.047,0.635c-0.29-0.006-0.774-0.487-0.793-0.781
				c-0.018-0.283,0.427-0.807,0.715-0.843c0.341-0.042,0.733,0.326,1.102,0.517C602.808-682.988,602.815-682.83,602.823-682.673z"/>
			<path fill="#FFFFFF" d="M695.092-611.986c-0.682,0.375-1.092,0.778-1.344,0.696c-0.342-0.112-0.719-0.569-0.775-0.927
				c-0.032-0.204,0.554-0.719,0.843-0.704C694.155-612.905,694.475-612.467,695.092-611.986z"/>
			<path fill="#FFFFFF" d="M740.604-608.999c-0.692,0.394-1.072,0.78-1.416,0.751c-0.285-0.024-0.789-0.615-0.73-0.82
				c0.1-0.343,0.543-0.746,0.895-0.805C739.618-609.918,739.968-609.467,740.604-608.999z"/>
			<path fill="#FFFFFF" d="M865.957-606.097c-0.693,0.453-1.046,0.857-1.392,0.853c-0.275-0.004-0.542-0.512-0.813-0.796
				c0.313-0.287,0.59-0.712,0.955-0.813C864.942-606.919,865.31-606.51,865.957-606.097z"/>
			<path fill="#FFFFFF" d="M529.25-599.957c-0.596,0.405-0.961,0.843-1.23,0.79c-0.357-0.069-0.638-0.523-0.952-0.812
				c0.32-0.279,0.613-0.722,0.971-0.783C528.311-600.808,528.665-600.368,529.25-599.957z"/>
			<path fill="#FFFFFF" d="M782.736-528.956c-0.42-0.578-0.87-0.935-0.82-1.195c0.068-0.356,0.517-0.642,0.802-0.957
				c0.292,0.311,0.745,0.587,0.82,0.944C783.593-529.905,783.146-529.541,782.736-528.956z"/>
			<path fill="#FFFFFF" d="M811.339-840.437c-0.683,0.38-1.092,0.786-1.344,0.704c-0.345-0.111-0.571-0.592-0.849-0.914
				c0.303-0.26,0.613-0.733,0.906-0.723C810.393-841.355,810.716-840.916,811.339-840.437z"/>
			<path fill="#FFFFFF" d="M647.276-838.777c0.409,0.578,0.853,0.938,0.799,1.195c-0.075,0.355-0.521,0.634-0.81,0.945
				c-0.289-0.313-0.741-0.592-0.814-0.949C646.398-837.84,646.854-838.199,647.276-838.777z"/>
			<path fill="#FFFFFF" d="M541.083-814.948c-0.4-0.691-0.791-1.067-0.759-1.404c0.028-0.294,0.531-0.544,0.824-0.813
				c0.284,0.315,0.729,0.6,0.797,0.958C541.995-815.948,541.548-815.593,541.083-814.948z"/>
			<path fill="#FFFFFF" d="M607.768-717.496c0.434,0.603,0.856,0.938,0.868,1.286c0.009,0.265-0.505,0.547-0.787,0.821
				c-0.285-0.321-0.681-0.604-0.811-0.979C606.972-716.563,607.377-716.919,607.768-717.496z"/>
			<path fill="#FFFFFF" d="M905.972-848.393c-0.376-0.615-0.801-1.017-0.725-1.258c0.109-0.342,0.588-0.567,0.908-0.843
				c0.244,0.308,0.672,0.61,0.682,0.926C906.847-849.271,906.416-848.961,905.972-848.393z"/>
			<path fill="#FFFFFF" d="M916.174-643.119c-0.438-0.658-0.854-1.011-0.842-1.349c0.01-0.295,0.503-0.573,0.782-0.858
				c0.301,0.3,0.76,0.562,0.849,0.914C917.026-644.156,916.599-643.777,916.174-643.119z"/>
			<path fill="#FFFFFF" d="M633.129-581.515c-0.364,0.203-0.745,0.587-1.087,0.555c-0.289-0.027-0.743-0.538-0.738-0.83
				c0.004-0.287,0.481-0.78,0.771-0.796c0.343-0.018,0.707,0.38,1.063,0.597C633.134-581.831,633.132-581.673,633.129-581.515z"/>
			<path fill="#FFFFFF" d="M856.531-534.095c-0.344,0.238-0.688,0.657-1.032,0.656c-0.286,0-0.779-0.477-0.8-0.771
				c-0.021-0.286,0.411-0.819,0.697-0.858c0.34-0.047,0.735,0.318,1.107,0.505C856.513-534.406,856.522-534.25,856.531-534.095z"/>
			<path fill="#FFFFFF" d="M975.086-799.998c-0.686,0.377-1.099,0.782-1.347,0.699c-0.345-0.117-0.567-0.6-0.842-0.926
				c0.306-0.256,0.62-0.727,0.913-0.713C974.149-800.922,974.469-800.48,975.086-799.998z"/>
			<path fill="#FFFFFF" d="M977.745-703.837c-0.37-0.608-0.76-0.965-0.719-1.26c0.045-0.312,0.501-0.563,0.777-0.842
				c0.288,0.307,0.743,0.583,0.808,0.932C978.659-704.754,978.189-704.405,977.745-703.837z"/>
			<path fill="#FFFFFF" d="M777.669-678.573c-0.411-0.589-0.86-0.964-0.798-1.208c0.088-0.345,0.555-0.594,0.859-0.884
				c0.261,0.291,0.704,0.566,0.731,0.879C778.488-679.492,778.076-679.159,777.669-678.573z"/>
			<path fill="#FFFFFF" d="M739.262-928.244c0.588,0.692,1.058,1.247,1.528,1.801c-0.173,0.127-0.46,0.395-0.503,0.359
				c-0.541-0.436-1.058-0.904-1.539-1.405C738.715-927.525,739.006-927.874,739.262-928.244z"/>
			<path fill="#FFFFFF" d="M566.624-936.224c-0.313,0.138-0.67,0.438-0.931,0.371c-0.349-0.09-0.624-0.466-0.931-0.72
				c0.268-0.235,0.556-0.682,0.8-0.66c0.385,0.035,0.74,0.387,1.108,0.604C566.656-936.494,566.64-936.358,566.624-936.224z"/>
			<path fill="#FFFFFF" d="M838.417-748.801c0.366,0.642,0.755,1.018,0.697,1.305c-0.063,0.305-0.56,0.742-0.841,0.723
				c-0.278-0.019-0.712-0.522-0.729-0.833C837.528-747.898,837.965-748.217,838.417-748.801z"/>
			<path fill="#FFFFFF" d="M576.601-912.545c0.375,0.611,0.801,1.016,0.722,1.25c-0.114,0.34-0.592,0.558-0.915,0.828
				c-0.243-0.307-0.667-0.608-0.676-0.922C575.723-911.682,576.156-911.986,576.601-912.545z"/>
			<path fill="#FFFFFF" d="M969.98-774.735c-0.67,0.374-1.061,0.768-1.329,0.697c-0.303-0.079-0.642-0.562-0.68-0.899
				c-0.023-0.205,0.503-0.67,0.768-0.658C969.059-775.583,969.362-775.189,969.98-774.735z"/>
			<path fill="#FFFFFF" d="M707.177-882.941c-0.642,0.383-1.008,0.777-1.295,0.727c-0.309-0.057-0.763-0.542-0.747-0.818
				c0.016-0.284,0.502-0.729,0.815-0.757C706.24-883.816,706.57-883.386,707.177-882.941z"/>
			<path fill="#FFFFFF" d="M546.187-509.742c-0.406-0.654-0.81-1.019-0.759-1.3c0.055-0.303,0.511-0.675,0.842-0.733
				c0.199-0.035,0.689,0.468,0.695,0.735C546.972-510.719,546.601-510.391,546.187-509.742z"/>
			<path fill="#FFFFFF" d="M787.03-659.615c-0.65,0.411-1.012,0.817-1.292,0.768c-0.304-0.054-0.676-0.506-0.738-0.837
				c-0.036-0.196,0.462-0.688,0.73-0.695C786.05-660.39,786.38-660.022,787.03-659.615z"/>
			<path fill="#FFFFFF" d="M534.778-950.506c-0.128-0.375-0.409-0.782-0.342-1.119c0.063-0.322,0.486-0.789,0.758-0.794
				c0.297-0.005,0.602,0.448,0.904,0.7c-0.23,0.275-0.461,0.551-0.692,0.825C535.197-950.764,534.987-950.635,534.778-950.506z"/>
			<path fill="#FFFFFF" d="M905.128-865.761c-0.512,0.339-0.832,0.716-1.103,0.683c-0.286-0.033-0.524-0.459-0.783-0.715
				c0.284-0.269,0.537-0.687,0.863-0.754C904.326-866.594,904.65-866.148,905.128-865.761z"/>
			<path fill="#FFFFFF" d="M931.466-499.832c-0.572,0.337-0.91,0.692-1.223,0.671c-0.259-0.018-0.487-0.479-0.729-0.743
				c0.285-0.261,0.544-0.671,0.867-0.731C930.611-500.679,930.93-500.251,931.466-499.832z"/>
			<path fill="#FFFFFF" d="M858.609-756.677c-0.477,0.366-0.805,0.794-1.023,0.745c-0.319-0.072-0.56-0.488-0.834-0.759
				c0.262-0.244,0.508-0.657,0.789-0.683C857.81-757.398,858.116-757.02,858.609-756.677z"/>
			<path fill="#FFFFFF" d="M736.174-963.035c-0.235-0.488-0.483-0.854-0.427-0.909c0.475-0.466,1.003-0.878,1.532-1.282
				c0.017-0.013,0.362,0.336,0.344,0.361C737.211-964.308,736.77-963.771,736.174-963.035z"/>
			<path fill="#FFFFFF" d="M732.255-893.054c-0.5,0.329-0.857,0.729-1.07,0.663c-0.312-0.096-0.52-0.527-0.771-0.814
				c0.276-0.225,0.55-0.617,0.831-0.622C731.513-893.831,731.788-893.433,732.255-893.054z"/>
			<path fill="#FFFFFF" d="M536.163-918.48c0.32,0.549,0.68,0.891,0.631,1.157c-0.05,0.278-0.497,0.483-0.77,0.721
				c-0.235-0.275-0.644-0.544-0.654-0.827C535.361-917.701,535.767-917.986,536.163-918.48z"/>
			<path fill="#FFFFFF" d="M620.916-851.285c-0.41,0.35-0.684,0.582-0.957,0.814c-0.218-0.336-0.58-0.662-0.604-1.011
				c-0.016-0.226,0.462-0.486,0.718-0.731C620.315-851.946,620.557-851.68,620.916-851.285z"/>
			<path fill="#FFFFFF" d="M544.13-583.729c-0.335-0.52-0.705-0.84-0.667-1.1c0.041-0.274,0.47-0.491,0.73-0.732
				c0.241,0.26,0.652,0.507,0.674,0.785C544.889-584.516,544.499-584.222,544.13-583.729z"/>
			<path fill="#FFFFFF" d="M816.044-961.574c0.338,0.605,0.645,0.904,0.613,1.162c-0.04,0.326-0.357,0.617-0.555,0.924
				c-0.209-0.252-0.569-0.493-0.588-0.76C815.491-960.566,815.759-960.906,816.044-961.574z"/>
			<path fill="#FFFFFF" d="M903.072-771.736c-0.379-0.512-0.733-0.783-0.751-1.076c-0.015-0.235,0.414-0.721,0.583-0.695
				c0.307,0.049,0.736,0.357,0.796,0.628C903.755-772.629,903.395-772.285,903.072-771.736z"/>
			<path fill="#FFFFFF" d="M571.521-714.021c-0.371-0.541-0.749-0.85-0.721-1.116c0.028-0.276,0.449-0.513,0.699-0.767
				c0.231,0.231,0.638,0.455,0.648,0.695C572.158-714.907,571.843-714.594,571.521-714.021z"/>
			<path fill="#FFFFFF" d="M573.463-700.028c0.339,0.442,0.732,0.749,0.683,0.941c-0.076,0.297-0.456,0.516-0.707,0.767
				c-0.219-0.241-0.59-0.47-0.614-0.729C572.804-699.295,573.147-699.572,573.463-700.028z"/>
			<path fill="#FFFFFF" d="M731.209-937.603c0.316,0.501,0.648,0.8,0.641,1.09c-0.006,0.226-0.512,0.66-0.664,0.609
				c-0.293-0.099-0.627-0.446-0.688-0.743C730.456-936.851,730.848-937.143,731.209-937.603z"/>
			<path fill="#FFFFFF" d="M863.609-822.382c-0.465,0.362-0.761,0.756-0.965,0.713c-0.299-0.063-0.642-0.401-0.744-0.698
				c-0.05-0.147,0.392-0.654,0.617-0.658C862.81-823.031,863.109-822.698,863.609-822.382z"/>
			<path fill="#FFFFFF" d="M583.594-731.9c0.365-0.371,0.73-0.741,1.096-1.112c0.178,0.187,0.524,0.521,0.51,0.539
				c-0.341,0.387-0.722,0.74-1.095,1.099C583.934-731.55,583.764-731.726,583.594-731.9z"/>
			<path fill="#FFFFFF" d="M714.346-982.145c-0.341-0.314-0.682-0.63-1.023-0.945c0.233-0.217,0.466-0.433,0.699-0.649
				c0.291,0.371,0.582,0.741,0.873,1.112C714.711-982.466,714.529-982.305,714.346-982.145z"/>
			<path fill="#FFFFFF" d="M929.261-649.533c-0.404,0.341-0.684,0.745-0.887,0.709c-0.299-0.052-0.543-0.418-0.811-0.65
				c0.252-0.25,0.471-0.631,0.766-0.703C928.529-650.228,928.836-649.845,929.261-649.533z"/>
			<path fill="#FFFFFF" d="M728.225-711.075c-0.584,0.311-0.908,0.622-1.197,0.593c-0.227-0.022-0.582-0.478-0.566-0.72
				c0.014-0.236,0.436-0.635,0.662-0.624C727.415-711.813,727.691-711.463,728.225-711.075z"/>
			<path fill="#FFFFFF" d="M818.666-678.728c-0.61,0.241-0.938,0.493-1.211,0.443c-0.257-0.047-0.456-0.411-0.682-0.635
				c0.295-0.152,0.585-0.408,0.887-0.424C817.894-679.354,818.143-679.064,818.666-678.728z"/>
			<path fill="#FFFFFF" d="M653.369-801.11c0.315,0.459,0.659,0.739,0.636,0.983c-0.024,0.26-0.397,0.485-0.618,0.727
				c-0.25-0.253-0.629-0.474-0.703-0.77C652.636-800.364,653.029-800.668,653.369-801.11z"/>
			<path fill="#FFFFFF" d="M737.234-970.928c-0.457,0.322-0.775,0.703-0.969,0.646c-0.293-0.084-0.499-0.473-0.742-0.732
				c0.251-0.211,0.493-0.573,0.755-0.588C736.523-971.617,736.789-971.262,737.234-970.928z"/>
			<path fill="#FFFFFF" d="M554.267-515.041c0.333,0.437,0.691,0.702,0.679,0.949c-0.012,0.26-0.379,0.503-0.592,0.753
				c-0.261-0.243-0.651-0.448-0.736-0.741C553.563-514.273,553.948-514.594,554.267-515.041z"/>
			<path fill="#FFFFFF" d="M725.029-977c0.365,0.43,0.775,0.715,0.736,0.91c-0.059,0.299-0.43,0.537-0.668,0.801
				c-0.232-0.229-0.617-0.438-0.654-0.693C724.408-976.229,724.736-976.525,725.029-977z"/>
			<path fill="#FFFFFF" d="M531.01-522.202c-0.42,0.358-0.709,0.772-0.905,0.732c-0.299-0.062-0.534-0.437-0.795-0.679
				c0.231-0.233,0.441-0.623,0.699-0.657C530.254-522.837,530.548-522.499,531.01-522.202z"/>
			<path fill="#FFFFFF" d="M937.455-684.858c0.287,0.466,0.648,0.807,0.581,0.998c-0.101,0.286-0.501,0.467-0.774,0.692
				c-0.196-0.262-0.549-0.525-0.546-0.785C936.72-684.199,937.094-684.44,937.455-684.858z"/>
			<path fill="#FFFFFF" d="M749.295-778.901c-0.291-0.495-0.614-0.801-0.57-1.038c0.048-0.251,0.443-0.438,0.688-0.652
				c0.214,0.246,0.584,0.484,0.596,0.739C750.02-779.611,749.654-779.354,749.295-778.901z"/>
			<path fill="#FFFFFF" d="M712.973-570.716c-0.293-0.436-0.631-0.72-0.6-0.954c0.033-0.248,0.488-0.67,0.637-0.623
				c0.294,0.091,0.629,0.422,0.701,0.714C713.754-571.404,713.33-571.114,712.973-570.716z"/>
			<path fill="#FFFFFF" d="M967.628-551.257c-0.365,0.234-0.656,0.523-0.758,0.467c-0.306-0.167-0.537-0.47-0.798-0.72
				c0.227-0.186,0.503-0.558,0.67-0.514C967.026-551.949,967.242-551.613,967.628-551.257z"/>
			<path fill="#FFFFFF" d="M540.412-545.612c-0.365,0.678-0.521,1.146-0.83,1.466c-0.159,0.165-0.592,0.066-0.9,0.087
				c0.062-0.277,0.032-0.673,0.205-0.808C539.243-545.146,539.707-545.284,540.412-545.612z"/>
			<path fill="#FFFFFF" d="M517.83-541.386c-0.286-0.452-0.614-0.74-0.581-0.979c0.035-0.253,0.413-0.458,0.641-0.684
				c0.24,0.256,0.609,0.484,0.674,0.778C518.605-542.084,518.191-541.799,517.83-541.386z"/>
			<path fill="#FFFFFF" d="M651.299-690.008c-0.449,0.359-0.709,0.728-0.949,0.716c-0.254-0.014-0.666-0.378-0.682-0.61
				c-0.015-0.228,0.355-0.635,0.608-0.681C650.513-690.625,650.816-690.298,651.299-690.008z"/>
			<path fill="#FFFFFF" d="M891.873-496.828c-0.498,0.308-0.769,0.603-1.036,0.599c-0.207-0.003-0.604-0.425-0.568-0.579
				c0.063-0.273,0.369-0.641,0.617-0.678C891.111-497.52,891.395-497.167,891.873-496.828z"/>
			<path fill="#FFFFFF" d="M669.732-981.916c0.309,0.422,0.492,0.674,0.678,0.926c-0.268,0.18-0.527,0.479-0.806,0.498
				c-0.193,0.014-0.604-0.392-0.577-0.551C669.072-981.308,669.393-981.524,669.732-981.916z"/>
			<path fill="#FFFFFF" d="M549.21-782.908c-0.5,0.313-0.802,0.648-1.028,0.604c-0.248-0.05-0.532-0.428-0.59-0.707
				c-0.03-0.145,0.396-0.547,0.609-0.541C548.467-783.545,548.724-783.238,549.21-782.908z"/>
			<path fill="#FFFFFF" d="M518.88-831.402c-0.508,0.297-0.821,0.625-1.048,0.574c-0.245-0.056-0.518-0.447-0.566-0.729
				c-0.025-0.147,0.414-0.537,0.624-0.523C518.157-832.063,518.405-831.748,518.88-831.402z"/>
			<path fill="#FFFFFF" d="M495.579-708.113c0.355,0.47,0.674,0.712,0.696,0.979c0.018,0.211-0.364,0.658-0.51,0.635
				c-0.284-0.046-0.681-0.308-0.743-0.554C494.966-707.278,495.29-707.599,495.579-708.113z"/>
			<path fill="#FFFFFF" d="M977.778-708.211c-0.453,0.359-0.716,0.726-0.946,0.706c-0.247-0.021-0.574-0.373-0.65-0.642
				c-0.043-0.153,0.334-0.594,0.542-0.607C976.989-708.772,977.274-708.489,977.778-708.211z"/>
			<path fill="#FFFFFF" d="M887.79-947.734c-0.295-0.473-0.627-0.771-0.585-1.002c0.046-0.248,0.448-0.607,0.681-0.597
				c0.226,0.011,0.589,0.421,0.602,0.671C888.499-948.426,888.136-948.169,887.79-947.734z"/>
			<path fill="#FFFFFF" d="M787.768-570.678c-0.489,0.335-0.776,0.683-1.005,0.647c-0.249-0.04-0.549-0.407-0.616-0.684
				c-0.035-0.146,0.373-0.564,0.583-0.566C786.997-571.283,787.268-570.988,787.768-570.678z"/>
			<path fill="#FFFFFF" d="M545.13-970.781c-0.286-0.535-0.584-0.84-0.543-1.089c0.041-0.256,0.414-0.458,0.641-0.683
				c0.199,0.248,0.543,0.492,0.554,0.748C545.792-971.549,545.467-971.279,545.13-970.781z"/>
			<path fill="#FFFFFF" d="M949.42-837.449c0.356,0.404,0.723,0.646,0.696,0.829c-0.041,0.274-0.315,0.601-0.575,0.72
				c-0.122,0.057-0.612-0.304-0.63-0.503C948.888-836.667,949.163-836.958,949.42-837.449z"/>
			<path fill="#FFFFFF" d="M929.226-804.106c-0.477,0.277-0.753,0.563-1.016,0.552c-0.2-0.01-0.582-0.478-0.532-0.6
				c0.107-0.265,0.415-0.556,0.687-0.609C928.545-804.799,928.804-804.445,929.226-804.106z"/>
			<path fill="#FFFFFF" d="M707.855-893.065c-0.451,0.29-0.737,0.608-0.916,0.558c-0.262-0.077-0.446-0.418-0.664-0.646
				c0.207-0.195,0.424-0.556,0.621-0.546C707.158-893.686,707.406-893.383,707.855-893.065z"/>
			<path fill="#FFFFFF" d="M881.8-777.908c-0.32-0.477-0.66-0.762-0.627-0.992c0.035-0.242,0.402-0.538,0.673-0.602
				c0.146-0.034,0.557,0.371,0.556,0.576C882.399-778.659,882.106-778.395,881.8-777.908z"/>
			<path fill="#FFFFFF" d="M874.599-713.243c-0.286-0.492-0.613-0.809-0.556-1.022c0.063-0.24,0.463-0.497,0.742-0.53
				c0.156-0.019,0.532,0.416,0.511,0.615C875.268-713.917,874.948-713.685,874.599-713.243z"/>
		</g>
		<g>
			<polygon points="496,-490.25 0,-490.25 0,-989.75 496,-989.75 			"/>
		</g>
		<g>
			<polygon points="1476.5,-980.5 980.5,-980.5 980.5,-1480 1476.5,-1480 			"/>
		</g>
		<g>
			<polygon points="986.25,-980.5 490.25,-980.5 490.25,-1480 986.25,-1480 			"/>
		</g>
		<g>
			<polygon points="496,-980.5 0,-980.5 0,-1480 496,-1480 			"/>
		</g>
	</g>
</pattern>
<g id="BACKGROUND">
	<rect x="-25.453" y="1845.05" width="1650.906" height="1650.906"/>
	<g>
		<g>
			<g>
				<path fill="none" stroke="#FFFFFF" stroke-width="3.8223" stroke-linecap="round" stroke-linejoin="round" d="M799.999,3185.697
					"/>
			</g>
			<g>
				<path fill="none" stroke="#FFFFFF" stroke-width="3.8223" stroke-linecap="round" stroke-linejoin="round" d="M799.999,2928.891
					"/>
			</g>
		</g>
	</g>
	<g>
		<g>
			<path fill="#FFFFFF" d="M799.999,3194.043c-0.841,0-1.682-0.215-2.436-0.65l-449.614-259.586
				c-1.506-0.867-2.434-2.477-2.434-4.217v-519.168c0-1.74,0.928-3.35,2.434-4.217l449.614-259.588c1.509-0.873,3.364-0.873,4.873,0
				l449.613,259.588c1.508,0.867,2.436,2.477,2.436,4.217v519.168c0,1.74-0.928,3.35-2.436,4.217l-449.613,259.586
				C801.682,3193.828,800.84,3194.043,799.999,3194.043z M355.254,2926.779l444.745,256.771l444.746-256.771v-513.547
				l-444.746-256.775l-444.745,256.775V2926.779z"/>
		</g>
	</g>
	<g>
		<g>
			<path fill="#FFFFFF" d="M543.427,3123.291c-0.691,0-1.329-0.363-1.678-0.961l-262.588-447.863
				c-0.352-0.6-0.357-1.342-0.015-1.947l256.571-451.346c0.345-0.605,0.984-0.98,1.682-0.984l519.161-3.475c0.006,0,0.008,0,0.014,0
				c0.691,0,1.328,0.367,1.68,0.963l262.586,447.865c0.352,0.602,0.357,1.344,0.014,1.949l-256.57,451.342
				c-0.346,0.605-0.984,0.98-1.682,0.986l-519.162,3.471C543.435,3123.291,543.433,3123.291,543.427,3123.291z M283.091,2673.467
				l261.449,445.924l516.912-3.459l255.459-449.389l-261.449-445.924l-516.911,3.455L283.091,2673.467z"/>
		</g>
	</g>
	<g>
		<g>
			<path fill="#FFFFFF" d="M799.999,3351.402c-0.337,0-0.671-0.086-0.974-0.262l-591.076-341.256
				c-0.603-0.348-0.972-0.99-0.972-1.688v-682.512c0-0.695,0.369-1.338,0.972-1.686l591.076-341.262c0.604-0.35,1.345-0.35,1.949,0
				L1392.053,2324c0.604,0.348,0.973,0.99,0.973,1.686v682.512c0,0.697-0.369,1.34-0.973,1.688l-591.079,341.256
				C800.671,3351.316,800.336,3351.402,799.999,3351.402z M210.871,3007.074l589.127,340.129l589.132-340.129v-680.266
				l-589.132-340.133l-589.127,340.133V3007.074z"/>
		</g>
	</g>
	<g>
		<g>
			<path fill="#FFFFFF" d="M1249.613,2930.986H350.385c-0.697,0-1.34-0.369-1.687-0.973s-0.347-1.348,0-1.951l449.615-778.754
				c0.694-1.207,2.679-1.207,3.373,0l449.615,778.754c0.348,0.604,0.348,1.348,0,1.951S1250.311,2930.986,1249.613,2930.986z
				 M353.758,2927.092h892.482L799.999,2154.18L353.758,2927.092z"/>
		</g>
	</g>
	<g>
		<g>
			<path fill="#FFFFFF" d="M799.999,3191.123c-0.696,0-1.339-0.371-1.686-0.975l-449.615-778.752c-0.347-0.604-0.347-1.348,0-1.951
				c0.347-0.602,0.99-0.971,1.687-0.971h899.228c0.697,0,1.34,0.369,1.688,0.971c0.348,0.604,0.348,1.348,0,1.951l-449.615,778.752
				C801.34,3190.752,800.696,3191.123,799.999,3191.123z M353.758,2412.369l446.24,772.908l446.242-772.908H353.758z"/>
		</g>
	</g>
	<g>
		<g>
			<path fill="#FFFFFF" d="M799.999,3351.627c-0.917,0-1.768-0.49-2.228-1.287l-593.66-1028.246c-0.459-0.793-0.459-1.777,0-2.57
				c0.459-0.795,1.31-1.285,2.228-1.285h1187.323c0.918,0,1.77,0.49,2.229,1.285c0.459,0.793,0.459,1.777,0,2.57L802.227,3350.34
				C801.768,3351.137,800.917,3351.627,799.999,3351.627z M210.794,2323.383L799.999,3343.91l589.208-1020.527H210.794z"/>
		</g>
	</g>
	<g>
		<g>
			<path fill="#FFFFFF" d="M1393.662,3018.342H206.339c-0.918,0-1.769-0.49-2.228-1.285c-0.459-0.793-0.459-1.777,0-2.57
				l593.66-1028.246c0.919-1.592,3.538-1.592,4.456,0l593.664,1028.246c0.459,0.793,0.459,1.777,0,2.57
				C1395.432,3017.852,1394.58,3018.342,1393.662,3018.342z M210.794,3013.197h1178.413L799.999,1992.67L210.794,3013.197z"/>
		</g>
	</g>
	<g>
		<g>
			<path fill="#FFFFFF" d="M799.999,3359.324c-184.125,0-357.227-71.701-487.423-201.896
				c-130.195-130.197-201.897-303.299-201.897-487.424s71.702-357.23,201.897-487.422
				c130.194-130.197,303.298-201.896,487.423-201.896c184.126,0,357.23,71.699,487.425,201.896
				c130.195,130.191,201.896,303.297,201.896,487.422s-71.701,357.227-201.896,487.424
				C1157.227,3287.623,984.125,3359.324,799.999,3359.324z M799.999,1985.65c-377.353,0-684.354,307-684.354,684.354
				c0,377.355,307,684.354,684.354,684.354c377.355,0,684.355-306.998,684.355-684.354
				C1484.354,2292.65,1177.354,1985.65,799.999,1985.65z"/>
		</g>
	</g>
	<g>
		<g>
			<path fill="#FFFFFF" d="M799.999,2322.973c-94.369,0-171.146-76.777-171.146-171.146c0-94.367,76.776-171.141,171.146-171.141
				c94.371,0,171.146,76.773,171.146,171.141C971.145,2246.195,894.369,2322.973,799.999,2322.973z M799.999,1986.262
				c-91.295,0-165.569,74.271-165.569,165.564c0,91.295,74.274,165.57,165.569,165.57c91.294,0,165.57-74.275,165.57-165.57
				C965.568,2060.533,891.293,1986.262,799.999,1986.262z"/>
		</g>
	</g>
	<g>
		<g>
			<path fill="#FFFFFF" d="M799.999,2841.15c-94.369,0-171.146-76.779-171.146-171.148c0-94.367,76.776-171.143,171.146-171.143
				c94.371,0,171.146,76.775,171.146,171.143C971.145,2764.371,894.369,2841.15,799.999,2841.15z M799.999,2504.436
				c-91.295,0-165.569,74.271-165.569,165.566s74.274,165.568,165.569,165.568c91.294,0,165.57-74.273,165.57-165.568
				S891.293,2504.436,799.999,2504.436z"/>
		</g>
	</g>
	<g>
		<g>
			<g>
				<path fill="#FFFFFF" d="M649.107,2541.969c-73.237,0-132.819-59.582-132.819-132.824c0-73.232,59.582-132.814,132.819-132.814
					s132.819,59.582,132.819,132.814C781.926,2482.387,722.344,2541.969,649.107,2541.969z M649.107,2280.656
					c-70.852,0-128.493,57.643-128.493,128.488c0,70.854,57.642,128.5,128.493,128.5c70.851,0,128.493-57.646,128.493-128.5
					C777.6,2338.299,719.958,2280.656,649.107,2280.656z"/>
			</g>
		</g>
		<g>
			<g>
				<path fill="#FFFFFF" d="M495.292,2801.43c-73.234,0-132.816-59.582-132.816-132.818s59.582-132.818,132.816-132.818
					c73.237,0,132.822,59.582,132.822,132.818S568.529,2801.43,495.292,2801.43z M495.292,2540.121
					c-70.848,0-128.49,57.641-128.49,128.49s57.642,128.494,128.49,128.494c70.852,0,128.495-57.645,128.495-128.494
					S566.143,2540.121,495.292,2540.121z"/>
			</g>
		</g>
		<g>
			<g>
				<path fill="#FFFFFF" d="M648.231,3061.713c-73.237,0-132.818-59.586-132.818-132.824c0-73.236,59.581-132.818,132.818-132.818
					s132.819,59.582,132.819,132.818C781.05,3002.127,721.468,3061.713,648.231,3061.713z M648.231,2800.398
					c-70.851,0-128.492,57.641-128.492,128.49c0,70.854,57.642,128.498,128.492,128.498c70.852,0,128.493-57.645,128.493-128.498
					C776.724,2858.039,719.083,2800.398,648.231,2800.398z"/>
			</g>
		</g>
	</g>
	<g>
		<g>
			<g>
				<path fill="#FFFFFF" d="M948.063,2541.969c-73.238,0-132.822-59.582-132.822-132.824c0-73.232,59.584-132.814,132.822-132.814
					c73.234,0,132.816,59.582,132.816,132.814C1080.879,2482.387,1021.297,2541.969,948.063,2541.969z M948.063,2280.656
					c-70.852,0-128.496,57.643-128.496,128.488c0,70.854,57.645,128.5,128.496,128.5c70.848,0,128.49-57.646,128.49-128.5
					C1076.553,2338.299,1018.91,2280.656,948.063,2280.656z"/>
			</g>
		</g>
		<g>
			<g>
				<path fill="#FFFFFF" d="M1101.873,2801.43c-73.236,0-132.818-59.582-132.818-132.818s59.582-132.818,132.818-132.818
					c73.238,0,132.82,59.582,132.82,132.818S1175.111,2801.43,1101.873,2801.43z M1101.873,2540.121
					c-70.85,0-128.492,57.641-128.492,128.49s57.643,128.494,128.492,128.494c70.852,0,128.494-57.645,128.494-128.494
					S1172.725,2540.121,1101.873,2540.121z"/>
			</g>
		</g>
		<g>
			<g>
				<path fill="#FFFFFF" d="M948.936,3061.713c-73.236,0-132.816-59.586-132.816-132.824c0-73.236,59.58-132.818,132.816-132.818
					s132.82,59.582,132.82,132.818C1081.756,3002.127,1022.172,3061.713,948.936,3061.713z M948.936,2800.398
					c-70.85,0-128.49,57.641-128.49,128.49c0,70.854,57.641,128.498,128.49,128.498s128.494-57.645,128.494-128.498
					C1077.43,2858.039,1019.785,2800.398,948.936,2800.398z"/>
			</g>
		</g>
	</g>
	<g>
		<g>
			<path fill="#FFFFFF" d="M799.999,3360.32c-94.369,0-171.146-76.775-171.146-171.146c0-94.367,76.776-171.143,171.146-171.143
				c94.371,0,171.146,76.775,171.146,171.143C971.145,3283.545,894.369,3360.32,799.999,3360.32z M799.999,3023.607
				c-91.295,0-165.569,74.273-165.569,165.566c0,91.297,74.274,165.57,165.569,165.57c91.294,0,165.57-74.273,165.57-165.57
				C965.568,3097.881,891.293,3023.607,799.999,3023.607z"/>
		</g>
	</g>
	<g>
		<g>
			<path fill="#FFFFFF" d="M1249.615,3100.037c-94.369,0-171.143-76.777-171.143-171.146c0-94.371,76.773-171.145,171.143-171.145
				c94.371,0,171.146,76.773,171.146,171.145C1420.762,3023.26,1343.986,3100.037,1249.615,3100.037z M1249.615,2763.322
				c-91.293,0-165.566,74.273-165.566,165.568c0,91.297,74.273,165.57,165.566,165.57c91.295,0,165.57-74.273,165.57-165.57
				C1415.186,2837.596,1340.91,2763.322,1249.615,2763.322z"/>
		</g>
	</g>
	<g>
		<g>
			<path fill="#FFFFFF" d="M1249.613,2581.568c-94.369,0-171.143-76.777-171.143-171.15c0-94.365,76.773-171.143,171.143-171.143
				s171.148,76.777,171.148,171.143C1420.762,2504.791,1343.982,2581.568,1249.613,2581.568z M1249.613,2244.854
				c-91.293,0-165.566,74.271-165.566,165.564c0,91.297,74.273,165.574,165.566,165.574c91.297,0,165.572-74.277,165.572-165.574
				C1415.186,2319.125,1340.91,2244.854,1249.613,2244.854z"/>
		</g>
	</g>
	<g>
		<g>
			<path fill="#FFFFFF" d="M350.385,3100.037c-94.371,0-171.147-76.777-171.147-171.146c0-94.371,76.776-171.145,171.147-171.145
				c94.369,0,171.144,76.773,171.144,171.145C521.529,3023.26,444.754,3100.037,350.385,3100.037z M350.385,2763.322
				c-91.296,0-165.571,74.273-165.571,165.568c0,91.297,74.274,165.57,165.571,165.57c91.294,0,165.567-74.273,165.567-165.57
				C515.953,2837.596,441.679,2763.322,350.385,2763.322z"/>
		</g>
	</g>
	<g>
		<g>
			<path fill="#FFFFFF" d="M350.385,2581.568c-94.371,0-171.147-76.777-171.147-171.15c0-94.365,76.776-171.143,171.147-171.143
				c94.367,0,171.142,76.777,171.142,171.143C521.527,2504.791,444.752,2581.568,350.385,2581.568z M350.385,2244.854
				c-91.296,0-165.571,74.271-165.571,165.564c0,91.297,74.274,165.574,165.571,165.574c91.294,0,165.565-74.277,165.565-165.574
				C515.951,2319.125,441.679,2244.854,350.385,2244.854z"/>
		</g>
	</g>
	<g>
		<g>
			<path fill="#FFFFFF" d="M206.341,3018.559c-0.959,0-1.896-0.496-2.41-1.385c-0.776-1.332-0.326-3.037,1.003-3.811
				l1184.74-690.086c1.33-0.779,3.041-0.324,3.813,1.004c0.777,1.334,0.326,3.041-1.004,3.814L207.742,3018.18
				C207.301,3018.438,206.818,3018.559,206.341,3018.559z"/>
		</g>
	</g>
	<g>
		<g>
			<path fill="#FFFFFF" d="M799.999,3359.629c-1.54,0-2.788-1.248-2.788-2.787V1984.424c0-1.539,1.248-2.787,2.788-2.787
				c1.542,0,2.789,1.248,2.789,2.787v1372.418C802.787,3358.381,801.541,3359.629,799.999,3359.629z"/>
		</g>
	</g>
	<g>
		<g>
			<path fill="#FFFFFF" d="M1393.66,3018.559c-0.475,0-0.955-0.121-1.395-0.375l-1181.083-684.15
				c-1.334-0.771-1.789-2.477-1.016-3.809c0.772-1.336,2.48-1.783,3.81-1.018l1181.084,684.148c1.332,0.773,1.787,2.48,1.016,3.813
				C1395.559,3018.061,1394.623,3018.559,1393.66,3018.559z"/>
		</g>
	</g>
	<g>
		<g>
			<path fill="#FFFFFF" d="M1062.59,3119.82c-0.668,0-1.318-0.342-1.682-0.963l-525.175-895.736
				c-0.546-0.93-0.232-2.123,0.695-2.664c0.93-0.555,2.12-0.236,2.664,0.693l525.175,895.738c0.547,0.926,0.232,2.119-0.693,2.664
				C1063.264,3119.736,1062.926,3119.82,1062.59,3119.82z"/>
		</g>
	</g>
	<g>
		<g>
			<path fill="#FFFFFF" d="M543.425,3123.291c-0.324,0-0.657-0.08-0.96-0.25c-0.936-0.533-1.262-1.723-0.732-2.658l513.146-902.682
				c0.531-0.938,1.719-1.264,2.656-0.732c0.936,0.533,1.264,1.723,0.732,2.658l-513.145,902.682
				C544.762,3122.941,544.106,3123.291,543.425,3123.291z"/>
		</g>
	</g>
	<pattern  id="SVGID_1_" xlink:href="#suciedad_invertida" patternTransform="matrix(0.3131 0 0 0.3131 -4603.9551 -4465.1313)">
	</pattern>
	<rect x="-25.453" y="1845.05" opacity="0.3" fill="url(#SVGID_1_)" width="1650.906" height="1650.906"/>
	<rect x="-25.453" y="-25.453" width="1650.906" height="1650.906"/>
	<g>
		<g>
			<g>
				<path fill="#FFFFFF" d="M1164.527,1422.871H435.473l364.528-631.38L1164.527,1422.871z M455.125,1411.524h689.752
					L800.001,814.183L455.125,1411.524z"/>
			</g>
		</g>
		<g>
			<g>
				<g>
					<path fill="#FFFFFF" d="M809.827,1279.111H80.771L445.299,647.73L809.827,1279.111z M100.423,1267.765h689.752L445.299,670.423
						L100.423,1267.765z"/>
				</g>
			</g>
			<g>
				<g>
					<path fill="#FFFFFF" d="M1519.229,1279.111H790.175l364.527-631.381L1519.229,1279.111z M809.827,1267.765h689.751
						l-344.876-597.342L809.827,1267.765z"/>
				</g>
			</g>
		</g>
		<g>
			<g>
				<path fill="#FFFFFF" d="M1164.527,808.51H435.473l364.528-631.381L1164.527,808.51z M455.125,797.163h689.752L800.001,199.821
					L455.125,797.163z"/>
			</g>
		</g>
		<g>
			<g>
				<g>
					<path fill="#FFFFFF" d="M967.153,808.51H238.098l364.528-631.381L967.153,808.51z M257.75,797.163h689.751L602.626,199.821
						L257.75,797.163z"/>
				</g>
			</g>
			<g>
				<g>
					<path fill="#FFFFFF" d="M1361.9,808.51H632.846l364.528-631.381L1361.9,808.51z M652.498,797.163h689.751L997.374,199.821
						L652.498,797.163z"/>
				</g>
			</g>
		</g>
	</g>
	<pattern  id="SVGID_2_" xlink:href="#suciedad_invertida" patternTransform="matrix(0.3131 0 0 0.3131 -4757.46 -4493.5703)">
	</pattern>
	<rect x="-25.453" y="-25.453" opacity="0.3" fill="url(#SVGID_2_)" width="1650.906" height="1650.906"/>
</g>
<g id="VEXELS">
	<g>
		<g>
			<path fill="#FFFFFF" d="M723.564,1582.116c-2.561-0.096-4.971-0.647-7.236-1.654c-2.25-1.005-4.223-2.351-5.883-4.065
				c-1.666-1.692-2.975-3.68-3.937-5.938c-0.973-2.244-1.454-4.671-1.454-7.25v-17.149c0-0.763,0.277-1.415,0.841-1.965
				c0.55-0.56,1.209-0.839,1.979-0.839c0.819,0,1.495,0.279,2.027,0.839c0.534,0.55,0.789,1.202,0.789,1.965v17.149
				c0,1.613,0.29,3.158,0.835,4.62c0.555,1.474,1.334,2.78,2.314,3.935c0.985,1.151,2.142,2.117,3.471,2.905
				c1.32,0.79,2.745,1.34,4.305,1.626v-30.235c0-0.763,0.269-1.415,0.827-1.965c0.547-0.56,1.237-0.839,2.053-0.839
				c0.779,0,1.419,0.279,1.955,0.839c0.538,0.55,0.792,1.202,0.792,1.965v33.248c0,0.78-0.255,1.442-0.792,1.985
				c-0.536,0.558-1.203,0.823-2.034,0.823H723.564z"/>
			<path fill="#FFFFFF" d="M742.926,1543.474c1.54,0,3,0.313,4.369,0.905c1.375,0.592,2.567,1.402,3.581,2.399
				c1.011,1.021,1.809,2.212,2.429,3.577c0.603,1.369,0.897,2.809,0.897,4.347v1.366c0,1.539-0.295,2.979-0.897,4.354
				c-0.62,1.372-1.417,2.55-2.429,3.569c-1.013,0.999-2.206,1.809-3.581,2.406c-1.369,0.599-2.829,0.899-4.369,0.899h-5.703v3.583
				c0,1.545,0.544,2.869,1.656,3.971c1.108,1.11,2.436,1.66,3.979,1.66c1.247,0,2.37-0.368,3.342-1.075
				c1-0.732,1.679-1.687,2.075-2.896c0.24-0.755,0.688-1.32,1.38-1.687c0.671-0.354,1.394-0.408,2.159-0.172
				c0.721,0.24,1.279,0.694,1.66,1.369c0.391,0.665,0.465,1.359,0.224,2.073c-0.78,2.394-2.15,4.338-4.125,5.801
				c-1.98,1.47-4.213,2.19-6.716,2.19c-1.543,0-2.997-0.294-4.373-0.892c-1.377-0.611-2.563-1.408-3.588-2.42
				c-0.999-1-1.813-2.19-2.42-3.551c-0.599-1.373-0.894-2.828-0.894-4.373v-16.179c0-1.538,0.295-2.978,0.894-4.347
				c0.608-1.365,1.421-2.556,2.42-3.577c1.025-0.997,2.211-1.808,3.588-2.399C739.861,1543.787,741.337,1543.474,742.926,1543.474z
				 M737.223,1561.76h5.703c1.54,0,2.87-0.563,3.985-1.698c1.104-1.122,1.646-2.454,1.646-3.993v-1.366
				c0-1.538-0.542-2.85-1.646-3.957c-1.115-1.096-2.445-1.653-3.985-1.653c-1.589,0-2.938,0.558-4.047,1.653
				c-1.111,1.107-1.656,2.419-1.656,3.957V1561.76z"/>
			<path fill="#FFFFFF" d="M775.235,1554.348c0-0.387-0.034-0.672-0.075-0.87c-0.054-0.183-0.084-0.325-0.084-0.429
				c-0.184-0.911-0.67-1.781-1.445-2.585c-1.053-1.053-2.35-1.596-3.902-1.596c-1.58,0-2.886,0.543-3.899,1.596
				c-1.057,1.049-1.585,2.368-1.585,3.944v16.637c0,1.529,0.528,2.836,1.585,3.869c1.057,1.067,2.367,1.598,3.899,1.598
				c1.454,0,2.749-0.53,3.902-1.598c1.071-1.149,1.604-2.442,1.604-3.869c0-0.775,0.266-1.428,0.79-1.972
				c0.52-0.565,1.196-0.839,2.026-0.839c0.765,0,1.428,0.273,1.979,0.839c0.551,0.544,0.839,1.196,0.839,1.972
				c0,3.019-1.108,5.636-3.325,7.834c-2.168,2.169-4.776,3.237-7.814,3.237c-3.073,0-5.702-1.068-7.876-3.237
				c-2.205-2.198-3.323-4.815-3.323-7.834v-16.637c0-3.058,1.118-5.711,3.323-7.908c2.175-2.21,4.803-3.317,7.876-3.317
				c3.039,0,5.646,1.107,7.814,3.317c2.167,2.197,3.275,4.803,3.325,7.768v0.08c-0.05,0.771-0.335,1.402-0.873,1.933
				c-0.531,0.538-1.18,0.797-1.945,0.797c-0.782,0-1.441-0.259-2-0.797C775.511,1555.75,775.235,1555.118,775.235,1554.348z"/>
			<path fill="#FFFFFF" d="M796.323,1576.512c0.626,0.047,1.297,0.307,1.984,0.797c0.709,0.47,1.048,1.142,1.048,1.999
				c0,0.821-0.269,1.497-0.812,2.026c-0.565,0.523-1.218,0.782-2.002,0.782c-3.128,0-5.807-1.109-8.017-3.312
				c-2.221-2.204-3.314-4.837-3.314-7.924v-24.89c0-0.809,0.274-1.483,0.83-2.006c0.541-0.53,1.239-0.803,2.053-0.803
				c0.771,0,1.431,0.272,1.977,0.803c0.561,0.522,0.823,1.197,0.823,2.006v1.088h3.193c0.775,0,1.445,0.278,1.993,0.829
				c0.538,0.544,0.835,1.203,0.835,1.974c0,0.815-0.298,1.488-0.835,2.019c-0.547,0.538-1.218,0.781-1.993,0.781h-3.193v18.199
				c0,1.449,0.572,2.773,1.671,3.971C793.583,1575.859,794.839,1576.409,796.323,1576.512z"/>
			<path fill="#FFFFFF" d="M823.208,1546.5c2.217,2.197,3.325,4.821,3.325,7.848v16.697c0,2.965-1.108,5.556-3.325,7.76
				c-2.163,2.202-4.789,3.312-7.876,3.312h-1.225c-3.043,0-5.638-1.109-7.809-3.312c-2.216-2.144-3.322-4.741-3.322-7.76v-16.697
				c0-3.08,1.106-5.685,3.322-7.848c2.213-2.21,4.814-3.317,7.809-3.317h1.225C818.369,1543.183,820.998,1544.29,823.208,1546.5z
				 M820.823,1554.348c0-1.542-0.526-2.835-1.581-3.884c-1.066-1.012-2.365-1.507-3.91-1.507h-1.162
				c-1.479,0-2.815,0.495-3.966,1.507c-1.053,1.145-1.585,2.444-1.585,3.884v16.697c0,1.427,0.532,2.72,1.585,3.869
				c1.15,1.012,2.486,1.529,3.966,1.529h1.162c1.545,0,2.844-0.518,3.91-1.529c1.055-1.033,1.581-2.34,1.581-3.869V1554.348z"/>
			<path fill="#FFFFFF" d="M831.09,1554.348c0-3.119,1.088-5.758,3.258-7.914c2.158-2.211,4.803-3.312,7.938-3.312
				c0.778,0,1.436,0.271,1.988,0.821c0.556,0.552,0.831,1.21,0.831,1.972c0,0.925-0.35,1.613-1.044,2.061
				c-0.7,0.457-1.359,0.706-1.985,0.755c-1.5,0.089-2.758,0.652-3.758,1.667c-1.061,1.039-1.602,2.36-1.602,3.95v22.448
				c0,1.498-0.551,2.755-1.656,3.775c-1.109,1.026-2.434,1.545-3.971,1.545V1554.348z"/>
		</g>
		<path fill="#FFFFFF" d="M870.435,1543.176h-1.237c-2.978,0-5.581,1.102-7.781,3.305c-2.221,2.156-3.316,4.754-3.316,7.828v16.688
			c0,3.007,1.096,5.598,3.316,7.732c2.163,2.217,4.754,3.327,7.781,3.327h1.237c3.076,0,5.699-1.11,7.867-3.327
			c2.208-2.182,3.314-4.761,3.314-7.732v-16.688c0-3.006-1.106-5.627-3.314-7.828
			C876.085,1544.277,873.471,1543.176,870.435,1543.176z M875.909,1570.996c0,1.522-0.525,2.822-1.575,3.864
			c-1.064,1.019-2.369,1.511-3.899,1.511h-1.157c-1.486,0-2.814-0.492-3.971-1.511c-1.056-1.145-1.583-2.442-1.583-3.864v-16.688
			c0-1.436,0.527-2.729,1.583-3.877c1.156-1.007,2.484-1.522,3.971-1.522h1.157c1.53,0,2.835,0.516,3.899,1.522
			c1.05,1.054,1.575,2.352,1.575,3.877V1570.996z M897.353,1543.176c-3.031,0-5.652,1.102-7.87,3.305
			c-2.217,2.201-3.311,4.822-3.311,7.828v35.946c1.595,0,2.919-0.55,4.036-1.584c1.104-1.014,1.648-2.277,1.648-3.822v-2.793h5.496
			c3.08,0,5.697-1.11,7.86-3.327c2.221-2.182,3.318-4.761,3.318-7.732v-16.688c0-3.006-1.098-5.627-3.318-7.828
			C903.016,1544.277,900.38,1543.176,897.353,1543.176z M902.828,1570.996c0,1.462-0.496,2.769-1.506,3.864
			c-1.161,1.019-2.471,1.511-3.97,1.511h-5.496v-22.063c0-1.525,0.537-2.823,1.599-3.877c1.151-1.007,2.45-1.522,3.897-1.522
			c1.499,0,2.809,0.516,3.97,1.522c1.01,1.054,1.506,2.352,1.506,3.877V1570.996z M931.78,1546.766
			c-1.002-1.014-2.197-1.801-3.574-2.408c-1.372-0.598-2.829-0.902-4.364-0.902c-1.59,0-3.068,0.305-4.445,0.902
			c-1.372,0.607-2.557,1.395-3.57,2.408c-1.008,1.008-1.816,2.191-2.415,3.557c-0.605,1.366-0.907,2.815-0.907,4.346v16.179
			c0,1.53,0.302,2.979,0.907,4.339c0.599,1.373,1.407,2.559,2.415,3.543c1.014,1.02,2.198,1.83,3.57,2.428
			c1.377,0.592,2.821,0.899,4.374,0.899c2.494,0,4.737-0.722,6.699-2.19c1.982-1.464,3.36-3.395,4.12-5.795
			c0.247-0.727,0.172-1.4-0.223-2.074c-0.37-0.68-0.927-1.129-1.651-1.367c-0.771-0.244-1.484-0.183-2.155,0.179
			c-0.679,0.358-1.141,0.924-1.377,1.691c-0.387,1.19-1.073,2.144-2.062,2.87c-0.99,0.721-2.101,1.074-3.352,1.074
			c-1.553,0-2.869-0.55-3.968-1.659c-1.111-1.095-1.668-2.407-1.668-3.938v-3.604h5.707c1.535,0,2.992-0.286,4.364-0.897
			c1.377-0.592,2.572-1.396,3.574-2.415c1.007-0.992,1.813-2.182,2.412-3.543c0.601-1.371,0.903-2.813,0.903-4.354v-1.365
			c0-1.53-0.303-2.979-0.903-4.346C933.594,1548.957,932.787,1547.773,931.78,1546.766z M929.472,1556.033
			c0,1.54-0.553,2.873-1.659,3.994c-1.108,1.122-2.436,1.694-3.971,1.694h-5.707v-7.054c0-1.53,0.557-2.848,1.668-3.95
			c1.099-1.108,2.449-1.661,4.039-1.661c1.535,0,2.862,0.553,3.971,1.661c1.106,1.103,1.659,2.42,1.659,3.95V1556.033z
			 M950.532,1543.176c-1.918,0-3.814,0.522-5.692,1.591c-0.533-1.068-1.389-1.591-2.598-1.591c-0.774,0-1.418,0.279-1.962,0.855
			c-0.563,0.572-0.86,1.212-0.86,1.938v36.087c1.604,0,2.918-0.525,3.971-1.578c1.149-1.108,1.739-2.374,1.739-3.81v-22.359
			c0-1.49,0.507-2.754,1.512-3.796c1.062-1.065,2.356-1.604,3.891-1.604c1.453,0,2.761,0.516,3.911,1.522
			c1.061,1.054,1.595,2.352,1.595,3.877v27.747c1.578,0,2.907-0.525,3.958-1.578c1.104-1.062,1.669-2.333,1.669-3.81v-22.359
			c0-3.074-1.099-5.672-3.263-7.828C956.19,1544.277,953.576,1543.176,950.532,1543.176z M996.405,1561.824
			c-1.08-1.084-2.346-1.934-3.789-2.553c-1.441-0.617-2.979-0.938-4.619-0.938h-0.793c-1.353,0-2.499-0.463-3.427-1.401
			c-0.945-0.924-1.416-2.06-1.416-3.413c0-1.293,0.458-2.416,1.375-3.34c0.927-0.945,2.051-1.402,3.379-1.402
			c1.309,0,2.422,0.452,3.345,1.361c0.516,0.523,1.184,0.802,1.981,0.802c0.786,0,1.449-0.278,1.988-0.802
			c0.521-0.529,0.785-1.182,0.785-1.972c0-0.796-0.264-1.449-0.785-1.98c-0.967-0.95-2.077-1.686-3.324-2.182
			c-1.259-0.502-2.574-0.755-3.99-0.755c-1.427,0-2.773,0.266-4.021,0.781c-1.262,0.537-2.354,1.259-3.275,2.19
			c-0.944,0.944-1.699,2.035-2.249,3.279c-0.562,1.244-0.834,2.583-0.834,4.019c0,1.441,0.272,2.78,0.834,4.024
			c0.55,1.254,1.305,2.342,2.249,3.266c0.922,0.938,2.014,1.68,3.275,2.23c1.248,0.558,2.595,0.829,4.021,0.829l0.81,0.061
			c1.773,0,3.285,0.619,4.517,1.844c1.208,1.224,1.839,2.692,1.839,4.414c0,1.728-0.631,3.217-1.839,4.455
			c-1.231,1.251-2.717,1.876-4.444,1.876c-1.441,0-2.732-0.429-3.86-1.3c-1.131-0.857-1.898-1.977-2.273-3.385
			c-0.188-0.748-0.628-1.334-1.29-1.721c-0.685-0.368-1.403-0.441-2.183-0.212c-0.713,0.244-1.278,0.694-1.655,1.341
			c-0.38,0.653-0.477,1.348-0.284,2.102c0.725,2.598,2.161,4.691,4.289,6.304c2.136,1.604,4.557,2.408,7.257,2.408
			c1.64,0,3.178-0.313,4.619-0.946c1.443-0.618,2.709-1.462,3.789-2.551c1.087-1.062,1.945-2.318,2.564-3.774
			c0.63-1.44,0.935-2.957,0.935-4.597c0-1.626-0.305-3.155-0.935-4.591C998.351,1564.156,997.492,1562.896,996.405,1561.824z
			 M1016.606,1577.233c-0.69-0.481-1.348-0.741-1.969-0.79c-1.501-0.095-2.752-0.64-3.759-1.659
			c-1.112-1.19-1.661-2.509-1.661-3.938v-18.19h3.181c0.764,0,1.422-0.26,1.979-0.797c0.562-0.509,0.833-1.197,0.833-2
			c0-0.773-0.271-1.427-0.833-1.983c-0.557-0.546-1.215-0.819-1.979-0.819h-3.181v-1.088c0-0.815-0.273-1.48-0.829-2.006
			c-0.561-0.53-1.221-0.787-1.985-0.787c-0.827,0-1.499,0.257-2.048,0.787c-0.561,0.525-0.835,1.19-0.835,2.006v24.878
			c0,3.061,1.102,5.7,3.318,7.882c2.21,2.217,4.872,3.327,8.015,3.327c0.766,0,1.418-0.267,1.979-0.783
			c0.545-0.544,0.823-1.211,0.823-2.025C1017.655,1578.389,1017.323,1577.723,1016.606,1577.233z M1033.599,1543.176h-1.214
			c-2.972,0-5.581,1.102-7.801,3.305c-2.205,2.156-3.311,4.754-3.311,7.828v16.688c0,3.007,1.105,5.598,3.311,7.732
			c2.177,2.217,4.772,3.327,7.801,3.327h1.214c3.094,0,5.72-1.11,7.878-3.327c2.205-2.182,3.315-4.761,3.315-7.732v-16.688
			c0-3.006-1.11-5.627-3.315-7.828C1039.264,1544.277,1036.645,1543.176,1033.599,1543.176z M1039.111,1570.996
			c0,1.522-0.549,2.822-1.603,3.864c-1.071,1.019-2.35,1.511-3.91,1.511h-1.146c-1.472,0-2.812-0.492-3.971-1.511
			c-1.052-1.145-1.59-2.442-1.59-3.864v-16.688c0-1.436,0.538-2.729,1.59-3.877c1.159-1.007,2.499-1.522,3.971-1.522h1.146
			c1.561,0,2.839,0.516,3.91,1.522c1.054,1.054,1.603,2.352,1.603,3.877V1570.996z M1060.529,1543.176
			c-3.082,0-5.696,1.102-7.867,3.305c-2.216,2.201-3.338,4.828-3.338,7.896v16.619c0,3.007,1.122,5.618,3.338,7.821
			c2.171,2.141,4.785,3.238,7.867,3.238c3.04,0,5.635-1.098,7.786-3.238c2.229-2.203,3.328-4.814,3.328-7.821
			c0-0.774-0.271-1.439-0.824-1.992c-0.553-0.545-1.211-0.823-1.989-0.823c-0.811,0-1.487,0.278-2.018,0.823
			c-0.539,0.553-0.798,1.218-0.798,1.992c0,1.422-0.521,2.72-1.574,3.864c-1.168,1.06-2.469,1.583-3.911,1.583
			c-1.549,0-2.839-0.523-3.903-1.583c-1.053-1.042-1.571-2.342-1.571-3.864v-16.619c0-1.578,0.519-2.892,1.571-3.945
			c1.02-1.056,2.306-1.583,3.903-1.583c1.533,0,2.828,0.527,3.911,1.583c0.754,0.803,1.236,1.673,1.417,2.576
			c0,0.103,0.036,0.246,0.096,0.438c0.041,0.188,0.062,0.48,0.062,0.863c0,0.762,0.282,1.408,0.828,1.945
			c0.562,0.522,1.213,0.787,1.987,0.787c0.778,0,1.417-0.265,1.949-0.787c0.526-0.537,0.817-1.184,0.864-1.945v-0.069
			c-0.047-2.972-1.153-5.558-3.328-7.759C1066.164,1544.277,1063.569,1543.176,1060.529,1543.176z M1093.644,1563.223
			c-0.668-0.715-1.408-1.318-2.233-1.802c1.738-2.005,2.615-4.38,2.615-7.112v-4.449c0-0.773-0.296-1.427-0.847-1.983
			c-0.55-0.546-1.202-0.819-1.969-0.819c-0.766,0-1.444,0.273-1.988,0.819c-0.566,0.557-0.819,1.21-0.819,1.983v4.449
			c0,1.523-0.558,2.849-1.67,3.964c-1.008,0.999-2.263,1.552-3.768,1.651h-1.343v-13.879c0-0.76-0.285-1.435-0.819-1.973
			c-0.531-0.55-1.19-0.822-2.03-0.822c-0.751,0-1.426,0.272-1.969,0.822c-0.552,0.538-0.816,1.213-0.816,1.973v36.011
			c1.538,0,2.857-0.525,3.962-1.578c1.101-1.062,1.673-2.313,1.673-3.748v-11.274h4.243c1.526,0.093,2.819,0.638,3.818,1.645
			c1.062,1.115,1.588,2.421,1.588,3.957v10.999c1.546,0,2.876-0.525,3.975-1.578c1.104-1.062,1.66-2.313,1.66-3.748v-5.673
			C1096.906,1568.031,1095.814,1565.426,1093.644,1563.223z"/>
		<g>
			<path fill="#FFFFFF" d="M503.094,1578.093v-20.399c0-1.37,0.973-2.29,2.296-2.29h5.464c3.045,0,5.831,2.736,5.831,5.926v13.196
				c0,3.385-2.785,5.89-5.831,5.89h-5.464C503.96,1580.415,503.094,1579.308,503.094,1578.093z M506.035,1558.364
				c0,6.429,0.036,12.619,0.036,19.083h4.783c1.54,0,2.863-1.316,2.863-2.922v-13.166c0-1.595-1.323-2.995-2.863-2.995H506.035z"/>
			<path fill="#FFFFFF" d="M534.162,1558.364l-8.408,0.062v7.701h8.044v2.959h-8.044v5.358c0,1.613,1.329,3.003,2.975,3.003h5.433
				v2.968h-5.433c-3.224,0-5.934-2.776-5.934-5.971v-16.726c0-1.361,1.173-2.315,2.396-2.315h8.97V1558.364z"/>
			<path fill="#FFFFFF" d="M545.628,1555.109c3.248,0,6.577,2.397,6.577,7.008h-2.936c0-2.643-1.815-4.038-3.642-4.038
				c-1.87,0-3.686,1.063-3.686,3.044v2.066c0,1.963,2.25,2.648,4.009,3.003c2.894,0.611,6.254,1.503,6.254,5.865v2.569
				c0,4.004-3.36,6.04-6.61,6.04c-3.401,0-6.58-2.392-6.542-7.038h2.89c0,2.677,1.792,4.031,3.652,4.031
				c1.815,0,3.675-1.063,3.675-3.033v-2.569c0-2.146-2.002-2.614-3.93-2.938c-3.109-0.605-6.257-1.32-6.288-5.93v-2.066
				C539.052,1557.154,542.259,1555.109,545.628,1555.109z"/>
			<path fill="#FFFFFF" d="M558.312,1580.415v-25.012h2.965v25.012H558.312z"/>
			<path fill="#FFFFFF" d="M573.253,1566.301h4.716c1.356,0,2.322,0.937,2.322,2.25v6.076c0,3.969-3.36,6.01-6.753,6.01
				c-3.438,0-6.8-2.078-6.8-6.15v-13.326c0-4.047,3.294-6.088,6.725-6.088c3.364,0,6.723,2.395,6.76,7.077h-3.005
				c0-2.714-1.857-4.101-3.755-4.101c-1.934,0-3.785,1.063-3.785,3.111v13.326c0,2.072,1.933,3.174,3.86,3.174
				c1.932,0,3.758-1.063,3.791-3.033v-5.397h-4.076V1566.301z"/>
			<path fill="#FFFFFF" d="M599.122,1555.403v22.979c0,1.355-0.927,2.032-1.897,2.032c-0.71,0-1.679-0.503-2.034-1.282
				c-1.788-4.398-3.503-9.473-5.362-14.34c-0.643-1.713-1.357-5.178-1.676-6.113l-0.435,0.119l0.86,4.391l0.147,17.226h-3.039
				v-23.013c-0.036-1.328,0.96-2.105,2.008-2.105c0.844,0,1.921,0.53,2.093,1.426l-0.022-0.086l7.365,20.811h0.197l-1.024-4.717
				l-0.151-17.327H599.122z"/>
			<path fill="#FFFFFF" d="M616.158,1558.364l-8.392,0.062v7.701h8.042v2.959h-8.042v5.358c0,1.613,1.313,3.003,2.965,3.003h5.427
				v2.968h-5.427c-3.22,0-5.935-2.776-5.935-5.971v-16.726c0-1.361,1.185-2.315,2.398-2.315h8.963V1558.364z"/>
			<path fill="#FFFFFF" d="M621.916,1578.093v-20.399c0-1.37,0.964-2.29,2.292-2.29h5.467c3.03,0,5.825,2.736,5.825,5.926v13.196
				c0,3.385-2.794,5.89-5.825,5.89h-5.467C622.771,1580.415,621.916,1579.308,621.916,1578.093z M624.843,1558.364
				c0,6.429,0.038,12.619,0.038,19.083h4.794c1.53,0,2.853-1.316,2.853-2.922v-13.166c0-1.595-1.323-2.995-2.853-2.995H624.843z"/>
			<path fill="#FFFFFF" d="M662.906,1566.974c2.362,0.366,3.499,2.9,3.499,4.614v2.972c0,3.101-2.86,5.855-5.825,5.897h-5.434
				c-1.422,0-2.292-0.896-2.292-2.364v-20.374c0-1.396,0.87-2.315,2.292-2.315h4.971c3.145,0.033,5.904,2.53,5.904,5.926v1.255
				C666.021,1563.938,665.048,1566.482,662.906,1566.974z M655.793,1558.364v7.183h4.719c1.497,0,2.567-1.354,2.567-2.963v-1.255
				c0-1.604-1.316-2.965-2.962-2.965H655.793z M663.436,1574.56v-2.972c0-1.676-1.312-3.037-2.924-3.037h-4.719v8.934h4.787
				C662.039,1577.412,663.436,1576.131,663.436,1574.56z"/>
			<path fill="#FFFFFF" d="M677.734,1569.63v10.785h-2.968v-10.857c-0.748-1.794-1.5-3.574-2.326-5.478
				c-1.142-2.568-2.68-6.219-3.676-8.677h3.143c1.041,2.352,3.11,7.867,4.039,10.18l0.327,1.933c0.033-0.278,0.21-1.65,0.278-1.969
				c0.83-2,3.227-8.294,4.01-10.144h3.213L677.734,1569.63z"/>
		</g>
	</g>
	<g>
		<path fill="#FFFFFF" stroke="#B2B2B7" stroke-width="1.4536" stroke-miterlimit="10" d="M2414.392,413.694h-559.513
			c-34.135,0-61.805,27.671-61.805,61.805v314.126l-118.047,16.998l118.047,11.537v306.342c0,34.133,27.67,61.805,61.805,61.805
			h559.513c34.134,0,61.806-27.672,61.806-61.805V475.5C2476.197,441.366,2448.525,413.694,2414.392,413.694z"/>
		
			<text transform="matrix(0.9686 0 0 1 1946.915 483.4531)" fill="#D39422" font-family="'Arial-BoldMT'" font-size="25.1168" letter-spacing="1.032">HOW TO USE THIS VECTOR?</text>
		<g>
			<rect x="1840.469" y="522.458" fill="none" width="604.213" height="654.528"/>
			<text transform="matrix(1 0 0 1 1840.4688 532.8652)"><tspan x="0" y="0" fill="#808080" font-family="'Arial-BoldMT'" font-size="14.5358">This vector graphic has been designed and brought to you by VectorOpenStock.com </tspan><tspan x="0" y="22.095" fill="#808080" font-family="'Arial-BoldMT'" font-size="14.5358">This work is given away for free. In exchange, we ask you to respect some simple </tspan><tspan x="0" y="44.189" fill="#808080" font-family="'Arial-BoldMT'" font-size="14.5358">rules. First, the design is under Creative Commons 3.0 Attribution License, it allows </tspan><tspan x="0" y="66.284" fill="#808080" font-family="'Arial-BoldMT'" font-size="14.5358">you to use this vector (even commercially) as long as you credit us. </tspan><tspan x="0" y="88.378" fill="#808080" font-family="'Arial-BoldMT'" font-size="14.5358">More information can be found here: </tspan><tspan x="0" y="110.472" fill="#D39422" font-family="'Arial-BoldMT'" font-size="14.5358">www.vectoropenstock.com/terms-and-conditions/</tspan><tspan x="0" y="154.661" fill="#808080" font-family="'Arial-BoldMT'" font-size="14.5358">If you are going to repost or publish this graphic resource in your site you MUST take </tspan><tspan x="0" y="176.756" fill="#808080" font-family="'Arial-BoldMT'" font-size="14.5358">into account the following:</tspan><tspan x="0" y="220.944" fill="#808080" font-family="'Arial-BoldMT'" font-size="14.5358">-Download of the vector file (zip file) MUST be done from our site. Hosting our designs </tspan><tspan x="0" y="243.039" fill="#808080" font-family="'Arial-BoldMT'" font-size="14.5358">in servers other than ours will be considered an infringement of our copyrights and  we </tspan><tspan x="0" y="265.134" fill="#808080" font-family="'Arial-BoldMT'" font-size="14.5358">will take legal actions.  </tspan><tspan x="0" y="287.228" fill="#808080" font-family="'Arial-BoldMT'" font-size="14.5358">-Keep our brand stripe in the jpg preview. Never place your logo over our design, that </tspan><tspan x="0" y="309.322" fill="#808080" font-family="'Arial-BoldMT'" font-size="14.5358">would be considered copyright infringement.</tspan><tspan x="0" y="331.417" fill="#808080" font-family="'Arial-BoldMT'" font-size="14.5358">-Place a link in your post to the vector in our site (you can easily find it at </tspan><tspan x="0" y="353.511" fill="#D39422" font-family="'Arial-BoldMT'" font-size="14.5358">http://www.vectoropenstock.com/our-vectors</tspan><tspan x="312.568" y="353.511" fill="#808080" font-family="'Arial-BoldMT'" font-size="14.5358">)</tspan><tspan x="317.409" y="353.511" fill="#808080" font-family="'Arial-BoldMT'" font-size="14.5358" letter-spacing="44">	</tspan><tspan x="0" y="375.605" fill="#808080" font-family="'Arial-BoldMT'" font-size="14.5358">-Don&apos;t copy our descriptions or keywords, come up with your own text. Copying de</tspan><tspan x="573.629" y="375.605" fill="#808080" font-family="'Arial-BoldMT'" font-size="14.5358">-</tspan><tspan x="0" y="397.7" fill="#808080" font-family="'Arial-BoldMT'" font-size="14.5358">scriptions and tags can be considered copyright infringement.</tspan><tspan x="0" y="441.889" fill="#808080" font-family="'Arial-BoldMT'" font-size="14.5358">If you ever find a site infringing our copyrights or violating any of the conditions stated </tspan><tspan x="0" y="463.983" fill="#808080" font-family="'Arial-BoldMT'" font-size="14.5358">above please inform us at </tspan><tspan x="182.56" y="463.983" fill="#D39422" font-family="'Arial-BoldMT'" font-size="14.5358">http://www.vectoropenstock.com/contact</tspan><tspan x="0" y="508.172" fill="#808080" font-family="'Arial-BoldMT'" font-size="14.5358">Thank you!</tspan><tspan x="0" y="530.267" fill="#808080" font-family="'Arial-BoldMT'" font-size="14.5358">Enjoy vectors and life!</tspan><tspan x="0" y="552.361" fill="#808080" font-family="'Arial-BoldMT'" font-size="14.5358">Peace and LOVE!</tspan><tspan x="0" y="596.55" fill="#808080" font-family="'Arial-BoldMT'" font-size="14.5358">Vector Open Stock Team</tspan></text>
		</g>
	</g>
</g>
</svg>
